<mxfile host="app.diagrams.net" modified="2023-08-11T18:42:30.373Z" agent="Mozilla/5.0 (Windows NT 10.0; Win64; x64) AppleWebKit/537.36 (KHTML, like Gecko) Chrome/115.0.0.0 Safari/537.36 Edg/115.0.1901.188" version="21.6.8" etag="4MpbZ2QdndGf7IWG8Pgl" type="github">
  <diagram name="Page-1" id="JcEUb3YfyauKkMtn890q">
    <mxGraphModel>
      <root>
        <mxCell id="0" />
        <mxCell id="1" parent="0" />
      </root>
    </mxGraphModel>
  </diagram>
</mxfile>
